<?xml version="1.0" encoding="UTF-8"?>
<!DOCTYPE svg PUBLIC "-//W3C//DTD SVG 1.1//EN" "http://www.w3.org/Graphics/SVG/1.1/DTD/svg11.dtd">
<svg xmlns="http://www.w3.org/2000/svg" version="1.1" viewBox="0 0 33 33" stroke="none">
	<rect width="100%" height="100%" fill="#ffffff"/>
	<path d="M4,4h7v1h-7z M12,4h1v1h-1z M14,4h2v1h-2z M18,4h2v1h-2z M22,4h7v1h-7z M4,5h1v6h-1z M10,5h1v6h-1z M15,5h1v5h-1z M16,5h2v1h-2z M19,5h1v1h-1z M22,5h1v6h-1z M28,5h1v6h-1z M6,6h3v3h-3z M12,6h1v2h-1z M20,6h1v1h-1z M24,6h3v3h-3z M13,7h2v2h-2z M16,7h2v1h-2z M19,7h1v3h-1z M18,8h1v1h-1z M20,8h1v1h-1z M12,9h1v4h-1z M14,9h1v3h-1z M16,9h1v3h-1z M5,10h5v1h-5z M18,10h1v1h-1z M20,10h1v5h-1z M23,10h5v1h-5z M17,11h1v1h-1z M5,12h1v2h-1z M7,12h1v4h-1z M9,12h3v1h-3z M13,12h1v1h-1z M15,12h1v1h-1z M18,12h2v1h-2z M21,12h3v1h-3z M25,12h1v3h-1z M26,12h1v1h-1z M28,12h1v4h-1z M4,13h1v2h-1z M14,13h1v3h-1z M17,13h1v3h-1z M22,13h1v6h-1z M27,13h1v3h-1z M6,14h1v3h-1z M8,14h5v1h-5z M18,14h1v1h-1z M21,14h1v1h-1z M24,14h1v1h-1z M5,15h1v3h-1z M8,15h1v1h-1z M13,15h1v2h-1z M16,15h1v4h-1z M19,15h1v1h-1z M23,15h1v1h-1z M4,16h1v1h-1z M9,16h4v1h-4z M18,16h1v4h-1z M20,16h2v1h-2z M25,16h1v3h-1z M7,17h1v1h-1z M12,17h1v1h-1z M14,17h1v1h-1z M19,17h1v1h-1z M21,17h1v2h-1z M23,17h1v1h-1z M26,17h3v1h-3z M4,18h1v1h-1z M6,18h1v2h-1z M8,18h1v3h-1z M10,18h2v1h-2z M13,18h1v1h-1z M15,18h1v2h-1z M17,18h1v2h-1z M20,18h1v1h-1z M28,18h1v1h-1z M5,19h1v2h-1z M7,19h1v1h-1z M11,19h1v1h-1z M14,19h1v1h-1z M19,19h1v1h-1z M23,19h2v2h-2z M4,20h1v1h-1z M9,20h2v1h-2z M20,20h1v5h-1z M21,20h2v1h-2z M26,20h1v4h-1z M28,20h1v1h-1z M12,21h2v3h-2z M16,21h2v1h-2z M19,21h1v3h-1z M24,21h1v6h-1z M25,21h1v1h-1z M4,22h7v1h-7z M18,22h1v1h-1z M22,22h1v1h-1z M27,22h2v3h-2z M4,23h1v6h-1z M10,23h1v6h-1z M25,23h1v1h-1z M6,24h3v3h-3z M13,24h1v1h-1z M15,24h1v3h-1z M17,24h2v1h-2z M21,24h3v1h-3z M12,25h1v1h-1z M23,25h1v1h-1z M25,25h1v1h-1z M13,26h1v3h-1z M17,26h1v1h-1z M20,26h1v3h-1z M28,26h1v1h-1z M12,27h1v1h-1z M16,27h1v2h-1z M19,27h1v2h-1z M22,27h1v1h-1z M5,28h5v1h-5z M14,28h1v1h-1z M24,28h5v1h-5z" fill="#000000"/>
</svg>
