<?xml version="1.0" encoding="UTF-8"?>
<!DOCTYPE svg PUBLIC "-//W3C//DTD SVG 1.1//EN" "http://www.w3.org/Graphics/SVG/1.1/DTD/svg11.dtd">
<svg xmlns="http://www.w3.org/2000/svg" version="1.1" viewBox="0 0 33 33" stroke="none">
	<rect width="100%" height="100%" fill="#ffffff"/>
	<path d="M4,4h7v1h-7z M13,4h1v3h-1z M16,4h2v4h-2z M22,4h7v1h-7z M4,5h1v6h-1z M10,5h1v6h-1z M12,5h1v1h-1z M22,5h1v6h-1z M28,5h1v6h-1z M6,6h3v3h-3z M14,6h2v1h-2z M19,6h1v3h-1z M24,6h3v3h-3z M12,7h1v2h-1z M14,7h1v1h-1z M20,7h1v7h-1z M13,8h1v1h-1z M15,8h2v1h-2z M18,8h1v4h-1z M14,9h1v3h-1z M16,9h1v3h-1z M5,10h5v1h-5z M12,10h1v3h-1z M23,10h5v1h-5z M17,11h1v6h-1z M19,11h1v1h-1z M5,12h1v3h-1z M7,12h4v1h-4z M13,12h1v1h-1z M15,12h1v1h-1z M21,12h2v1h-2z M24,12h2v1h-2z M27,12h1v1h-1z M7,13h1v2h-1z M9,13h1v1h-1z M11,13h1v1h-1z M14,13h1v1h-1z M18,13h2v1h-2z M23,13h1v3h-1z M24,13h1v1h-1z M26,13h1v1h-1z M10,14h1v1h-1z M13,14h1v2h-1z M15,14h2v1h-2z M19,14h1v1h-1z M22,14h1v3h-1z M28,14h1v1h-1z M4,15h1v6h-1z M6,15h1v2h-1z M8,15h1v3h-1z M9,15h1v1h-1z M12,15h1v1h-1z M25,15h1v5h-1z M26,15h2v1h-2z M10,16h1v1h-1z M14,16h3v1h-3z M19,16h1v6h-1z M27,16h1v3h-1z M28,16h1v1h-1z M9,17h1v1h-1z M11,17h1v1h-1z M16,17h1v4h-1z M18,17h1v2h-1z M20,17h2v1h-2z M24,17h1v2h-1z M26,17h1v1h-1z M5,18h1v1h-1z M7,18h1v3h-1z M10,18h1v1h-1z M13,18h1v2h-1z M15,18h1v3h-1z M20,18h1v1h-1z M22,18h1v1h-1z M28,18h1v5h-1z M8,19h1v1h-1z M23,19h1v2h-1z M26,19h1v3h-1z M6,20h1v1h-1z M9,20h2v1h-2z M12,20h1v2h-1z M14,20h1v1h-1z M18,20h1v2h-1z M20,20h1v6h-1z M21,20h2v1h-2z M24,20h1v5h-1z M4,22h7v1h-7z M13,22h1v2h-1z M16,22h1v4h-1z M22,22h1v1h-1z M4,23h1v6h-1z M10,23h1v6h-1z M12,23h1v3h-1z M14,23h2v2h-2z M17,23h1v2h-1z M19,23h1v2h-1z M25,23h1v6h-1z M27,23h1v1h-1z M6,24h3v3h-3z M18,24h1v5h-1z M21,24h3v1h-3z M28,24h1v5h-1z M13,25h2v1h-2z M22,25h1v1h-1z M26,25h2v3h-2z M17,26h1v1h-1z M19,26h1v2h-1z M21,26h1v3h-1z M23,26h2v1h-2z M12,27h1v1h-1z M15,27h1v2h-1z M20,27h1v2h-1z M22,27h1v2h-1z M5,28h5v1h-5z M14,28h1v1h-1z M16,28h1v1h-1z" fill="#000000"/>
</svg>
